<?xml version="1.0" standalone="no"?>
<svg viewBox="0 0 200 200" xmlns="http://www.w3.org/2000/svg">
  <path fill="#D0E2FF" d="M48.2,-76C62,-66.1,72.4,-52,77.5,-36.6C82.7,-21.2,82.6,-4.7,80.9,12.1C79.2,28.9,75.9,45.9,66.5,58.8C57.1,71.6,41.6,80.4,26.1,81.6C10.6,82.7,-4.9,76.2,-17.5,68.5C-30,60.7,-39.6,51.6,-51.5,42.2C-63.5,32.8,-77.8,23,-80.9,10.8C-84,-1.5,-75.8,-16.2,-67.6,-29.6C-59.5,-42.9,-51.3,-55,-40,-66C-28.7,-76.9,-14.4,-86.9,1.4,-89.1C17.2,-91.3,34.4,-85.8,48.2,-76Z" transform="translate(100 100)" />
</svg>