<svg xmlns="http://www.w3.org/2000/svg" viewBox="0 0 64 80" x="0px" y="0px"><path d="m57,10.75c.96,0,1.75-.79,1.75-1.75v-2c0-.96-.79-1.75-1.75-1.75H7c-.96,0-1.75.79-1.75,1.75v2c0,.96.79,1.75,1.75,1.75h.25v32.5h-.25c-.96,0-1.75.79-1.75,1.75v2c0,.96.79,1.75,1.75,1.75h15.25v3.25c0,.41.34.75.75.75h1.96l-1.67,5.01c-.13.39.08.82.47.95.4.13.82-.08.95-.47l1.83-5.49h2.42l-1.67,5.01c-.13.39.08.82.47.95.08.03.16.04.24.04.31,0,.61-.2.71-.51l1.83-5.49h2.92l1.83,5.49c.13.39.55.6.95.47.39-.13.61-.56.47-.95l-1.67-5.01h2.42l1.83,5.49c.11.31.4.51.71.51.08,0,.16-.01.24-.04.39-.13.61-.56.47-.95l-1.67-5.01h1.96c.41,0,.75-.34.75-.75v-3.25h15.25c.96,0,1.75-.79,1.75-1.75v-2c0-.96-.79-1.75-1.75-1.75h-.25V10.75h.25Zm-50.25-1.75v-2c0-.14.11-.25.25-.25h50c.14,0,.25.11.25.25v2c0,.14-.11.25-.25.25H7c-.14,0-.25-.11-.25-.25Zm33.5,42.25h-16.5v-2.5h16.5v2.5Zm17-6.25v2c0,.14-.11.25-.25.25H7c-.14,0-.25-.11-.25-.25v-2c0-.14.11-.25.25-.25h50c.14,0,.25.11.25.25Zm-2-1.75H8.75V10.75h46.5v32.5Zm-23.25-3.5c7.03,0,12.75-5.72,12.75-12.75s-5.72-12.75-12.75-12.75-12.75,5.72-12.75,12.75,5.72,12.75,12.75,12.75Zm0-24c6.2,0,11.25,5.05,11.25,11.25s-5.05,11.25-11.25,11.25-11.25-5.05-11.25-11.25,5.05-11.25,11.25-11.25Zm-3.76,17.12c.27.16.57.24.88.24s.6-.08.88-.24l7.54-4.35c.55-.32.88-.88.88-1.52s-.33-1.2-.88-1.52l-7.54-4.35c-.55-.32-1.2-.32-1.75,0-.55.32-.88.88-.88,1.52v8.71c0,.63.33,1.2.88,1.52Zm.62-10.22c0-.13.08-.19.12-.22.03-.02.07-.04.13-.04.04,0,.08,0,.12.04l7.54,4.35c.11.06.12.16.12.22s-.02.15-.12.22l-7.54,4.35c-.11.06-.2.03-.25,0-.05-.03-.12-.09-.12-.22v-8.71Z"/><text x="0" y="79" fill="#000000" font-size="5px" font-weight="bold" font-family="'Helvetica Neue', Helvetica, Arial-Unicode, Arial, Sans-serif">Created by Arkinasi</text><text x="0" y="84" fill="#000000" font-size="5px" font-weight="bold" font-family="'Helvetica Neue', Helvetica, Arial-Unicode, Arial, Sans-serif">from the Noun Project</text></svg>